<?xml version="1.0" encoding="UTF-8"?>
<svg xmlns="http://www.w3.org/2000/svg" xmlns:xlink="http://www.w3.org/1999/xlink" width="500px" height="500px" viewBox="0 0 500 500" version="1.1">
<g id="surface1">
<path style=" stroke:none;fill-rule:nonzero;fill:rgb(100%,42.352942%,21.568628%);fill-opacity:1;" d="M 433.921875 127.148438 C 367.820312 41.550781 244.839844 25.753906 159.25 91.863281 C 73.660156 157.972656 57.875 280.953125 123.992188 366.535156 C 190.109375 452.121094 313.09375 467.894531 398.667969 401.765625 C 484.214844 335.65625 500 212.722656 433.914062 127.148438 Z M 433.921875 127.148438 "/>
<path style=" stroke:none;fill-rule:nonzero;fill:rgb(100%,100%,100%);fill-opacity:1;" d="M 344.988281 175.78125 L 262.425781 259 L 239.09375 235.011719 C 320.351562 153.753906 328.507812 161.09375 344.992188 175.78125 Z M 344.988281 175.78125 "/>
<path style=" stroke:none;fill-rule:nonzero;fill:rgb(100%,42.352942%,21.568628%);fill-opacity:1;" d="M 262.425781 261.273438 C 261.691406 261.257812 260.996094 260.96875 260.464844 260.460938 L 236.96875 236.964844 C 235.871094 235.828125 235.871094 234.019531 236.96875 232.882812 C 317.085938 152.765625 328.019531 156.519531 346.945312 173.652344 C 347.589844 174.164062 347.949219 174.953125 347.925781 175.773438 C 348.046875 176.570312 347.742188 177.382812 347.109375 177.898438 L 264.546875 260.46875 C 263.96875 261 263.210938 261.289062 262.425781 261.28125 Z M 243.167969 235.007812 L 262.425781 254.261719 L 340.746094 175.941406 C 335.148438 168.921875 325.167969 167.234375 317.574219 172.023438 C 303.378906 178.386719 280.535156 197.804688 243.167969 235.007812 Z M 243.167969 235.007812 "/>
<path style=" stroke:none;fill-rule:nonzero;fill:rgb(100%,100%,100%);fill-opacity:1;" d="M 286.085938 282.007812 L 263.566406 259 L 346.132812 177.410156 C 368.324219 199.113281 335.363281 235.335938 286.085938 282 Z M 286.085938 282.007812 "/>
<path style=" stroke:none;fill-rule:nonzero;fill:rgb(100%,42.352942%,21.568628%);fill-opacity:1;" d="M 286.085938 284.945312 C 285.363281 284.886719 284.679688 284.601562 284.128906 284.128906 L 261.121094 261.613281 C 260.777344 260.773438 260.777344 259.835938 261.121094 259 C 260.875 258.3125 260.875 257.5625 261.121094 256.875 L 343.683594 174.3125 C 344.875 173.191406 346.734375 173.191406 347.925781 174.3125 C 353.335938 179.292969 356.3125 186.378906 356.082031 193.726562 C 356.082031 215.757812 330.949219 243.492188 288.203125 283.964844 C 287.632812 284.53125 286.878906 284.875 286.078125 284.945312 Z M 267.808594 259 L 286.246094 277.429688 C 318.878906 246.589844 350.046875 214.769531 350.207031 193.230469 C 350.382812 188.664062 348.875 184.195312 345.964844 180.667969 Z M 267.808594 259 "/>
<path style=" stroke:none;fill-rule:nonzero;fill:rgb(100%,100%,100%);fill-opacity:1;" d="M 239.742188 235.503906 L 256.058594 251.820312 L 221.628906 260.632812 C 220.199219 260.941406 218.742188 260.261719 218.058594 258.96875 C 217.375 257.679688 217.632812 256.089844 218.691406 255.082031 L 238.761719 235.179688 C 238.761719 235.179688 239.417969 235.179688 239.742188 235.503906 Z M 239.742188 235.503906 "/>
<path style=" stroke:none;fill-rule:nonzero;fill:rgb(100%,42.352942%,21.568628%);fill-opacity:1;" d="M 220.816406 263.894531 C 218.601562 263.867188 216.5625 262.691406 215.429688 260.792969 C 214.140625 258.363281 214.605469 255.371094 216.574219 253.449219 L 236.480469 233.378906 C 237.964844 232.050781 240.210938 232.050781 241.699219 233.378906 L 258.019531 249.699219 C 258.984375 250.617188 259.363281 252.003906 258.996094 253.289062 C 258.628906 254.574219 257.554688 255.597656 256.226562 255.902344 L 221.792969 263.246094 Z M 239.09375 239.09375 L 220.65625 257.53125 L 251.171875 251 Z M 240.5625 237.625 Z M 240.5625 237.625 "/>
<path style=" stroke:none;fill-rule:nonzero;fill:rgb(100%,100%,100%);fill-opacity:1;" d="M 388.886719 129.925781 C 377.074219 118.53125 358.523438 118.054688 346.136719 128.804688 C 333.753906 139.554688 331.636719 158.011719 341.28125 171.289062 C 350.921875 184.566406 369.101562 188.289062 383.175781 179.855469 L 360.984375 157.664062 Z M 388.886719 129.925781 "/>
<path style=" stroke:none;fill-rule:nonzero;fill:rgb(100%,42.352942%,21.568628%);fill-opacity:1;" d="M 366.855469 187.359375 C 352.984375 187.179688 340.566406 178.730469 335.308594 165.890625 C 330.054688 153.066406 332.941406 138.347656 342.648438 128.457031 C 356.242188 115.117188 378.011719 115.117188 391.601562 128.457031 C 392.226562 128.984375 392.582031 129.757812 392.582031 130.578125 C 392.578125 131.394531 392.222656 132.171875 391.601562 132.703125 L 365.167969 157.667969 L 385.238281 177.414062 C 385.898438 178.046875 386.203125 178.960938 386.050781 179.863281 C 385.953125 180.726562 385.476562 181.507812 384.75 181.984375 C 379.355469 185.355469 373.160156 187.214844 366.800781 187.371094 Z M 366.855469 124.042969 C 355.230469 124.105469 344.828125 131.101562 340.464844 141.789062 C 336.101562 152.480469 338.476562 164.785156 346.628906 172.996094 C 354.925781 181.34375 367.492188 183.742188 378.28125 179.035156 L 359.023438 159.78125 C 358.40625 159.285156 358.042969 158.53125 358.042969 157.738281 C 358.042969 156.945312 358.40625 156.195312 359.023438 155.699219 L 384.480469 130.078125 C 379.417969 126.199219 373.230469 124.078125 366.855469 124.039062 Z M 366.855469 124.042969 "/>
<path style=" stroke:none;fill-rule:nonzero;fill:rgb(100%,100%,100%);fill-opacity:1;" d="M 389.375 130.414062 L 361.472656 158.152344 L 383.664062 180.34375 C 385.898438 179.0625 387.980469 177.53125 389.863281 175.773438 C 401.957031 162.996094 401.738281 142.929688 389.375 130.414062 Z M 389.375 130.414062 "/>
<path style=" stroke:none;fill-rule:nonzero;fill:rgb(100%,42.352942%,21.568628%);fill-opacity:1;" d="M 383.171875 182.792969 C 382.425781 182.832031 381.707031 182.535156 381.210938 181.980469 L 359.019531 159.785156 C 358.398438 159.289062 358.039062 158.539062 358.039062 157.746094 C 358.039062 156.949219 358.398438 156.199219 359.019531 155.703125 L 386.753906 128.457031 C 387.300781 127.636719 388.21875 127.144531 389.203125 127.144531 C 390.1875 127.144531 391.105469 127.636719 391.652344 128.457031 C 398.230469 134.902344 401.9375 143.722656 401.9375 152.933594 C 401.9375 162.140625 398.230469 170.964844 391.652344 177.410156 C 389.730469 179.445312 387.53125 181.203125 385.121094 182.628906 C 384.515625 182.933594 383.8125 182.992188 383.164062 182.792969 Z M 365.222656 157.667969 L 383.660156 176.105469 C 384.929688 175.214844 386.128906 174.234375 387.25 173.167969 C 392.671875 167.761719 395.722656 160.425781 395.738281 152.773438 C 395.75 145.921875 393.253906 139.304688 388.71875 134.171875 Z M 365.222656 157.667969 "/>
<path style=" stroke:none;fill-rule:nonzero;fill:rgb(100%,100%,100%);fill-opacity:1;" d="M 348.414062 179.207031 C 343.828125 174.898438 336.683594 174.898438 332.09375 179.207031 L 258.183594 252.953125 L 270.421875 265.355469 L 348.578125 196.824219 C 350.988281 194.515625 352.335938 191.3125 352.304688 187.976562 C 352.273438 184.640625 350.867188 181.464844 348.414062 179.203125 Z M 348.414062 179.207031 "/>
<path style=" stroke:none;fill-rule:nonzero;fill:rgb(100%,42.352942%,21.568628%);fill-opacity:1;" d="M 269.765625 268.300781 C 269.035156 268.28125 268.335938 267.992188 267.808594 267.484375 L 255.40625 255.082031 C 254.304688 253.945312 254.304688 252.140625 255.40625 251 L 329.324219 177.410156 C 333.679688 173.058594 340.25 171.804688 345.902344 174.253906 C 351.550781 176.699219 355.136719 182.347656 354.941406 188.503906 C 354.773438 192.625 352.949219 196.507812 349.882812 199.273438 L 271.726562 267.804688 C 271.15625 268.207031 270.457031 268.382812 269.765625 268.292969 Z M 261.121094 252.953125 L 269.277344 261.273438 L 345.964844 194.535156 C 347.863281 192.882812 348.996094 190.519531 349.070312 188.007812 C 349.140625 185.492188 348.152344 183.03125 346.296875 181.320312 C 342.730469 177.769531 336.96875 177.769531 333.402344 181.320312 Z M 261.121094 252.953125 "/>
<path style=" stroke:none;fill-rule:nonzero;fill:rgb(100%,100%,100%);fill-opacity:1;" d="M 200.910156 336.992188 L 204.171875 353.144531 C 204.4375 354.855469 203.632812 356.554688 202.140625 357.429688 C 200.648438 358.300781 198.765625 358.113281 197.476562 356.957031 L 175.125 335.417969 L 244.800781 265.191406 L 268.953125 265.191406 L 285.273438 281.511719 C 259.816406 303.769531 231.429688 322.433594 200.910156 336.992188 Z M 200.910156 336.992188 "/>
<path style=" stroke:none;fill-rule:nonzero;fill:rgb(100%,42.352942%,21.568628%);fill-opacity:1;" d="M 199.441406 360.976562 C 197.59375 360.941406 195.769531 360.183594 194.546875 358.855469 L 173.171875 337.480469 C 172.550781 336.984375 172.191406 336.234375 172.191406 335.441406 C 172.191406 334.648438 172.550781 333.894531 173.171875 333.398438 L 243.332031 263.074219 L 269.113281 262.261719 C 269.746094 262.035156 270.4375 262.035156 271.070312 262.261719 L 287.390625 278.578125 C 288.019531 279.160156 288.324219 280.015625 288.203125 280.863281 C 288.226562 281.683594 287.863281 282.46875 287.222656 282.984375 L 285.921875 284.128906 C 260.359375 305.4375 232.242188 323.472656 202.214844 337.8125 L 205.316406 351.027344 C 205.800781 353.09375 205.328125 355.265625 204.03125 356.945312 C 202.734375 358.625 200.746094 359.625 198.628906 359.675781 Z M 179.535156 335.359375 L 198.785156 354.773438 L 196.828125 339.433594 C 196.296875 337.332031 197.320312 335.148438 199.277344 334.214844 C 228.496094 320.066406 255.890625 302.421875 280.859375 281.671875 L 267.476562 268.289062 L 245.613281 268.289062 Z M 203.03125 338.296875 Z M 203.03125 338.296875 "/>
<path style=" stroke:none;fill-rule:nonzero;fill:rgb(100%,100%,100%);fill-opacity:1;" d="M 158.320312 352.167969 L 174.640625 335.847656 L 199.769531 360.976562 L 159.796875 358.207031 C 158.386719 358.097656 157.210938 357.09375 156.875 355.722656 C 156.542969 354.347656 157.128906 352.917969 158.328125 352.171875 Z M 158.320312 352.167969 "/>
<path style=" stroke:none;fill-rule:nonzero;fill:rgb(100%,42.352942%,21.568628%);fill-opacity:1;" d="M 200.253906 363.425781 L 160.4375 360.652344 C 158.078125 360.433594 156.046875 358.816406 155.214844 356.660156 C 154.378906 354.5 154.886719 351.933594 156.523438 350.207031 L 172.839844 333.890625 C 173.980469 332.789062 175.785156 332.789062 176.921875 333.890625 L 201.886719 358.855469 C 202.597656 359.828125 202.597656 361.144531 201.886719 362.117188 C 201.511719 362.726562 200.933594 363.1875 200.253906 363.417969 Z M 160.4375 354.289062 L 193.070312 356.414062 L 175.125 339.605469 Z M 160.4375 354.289062 "/>
<path style=" stroke:none;fill-rule:nonzero;fill:rgb(100%,100%,100%);fill-opacity:1;" d="M 271.234375 267.160156 L 238.273438 272.222656 L 257.363281 253.296875 Z M 271.234375 267.160156 "/>
<path style=" stroke:none;fill-rule:nonzero;fill:rgb(100%,42.352942%,21.568628%);fill-opacity:1;" d="M 238.273438 275.3125 C 237.152344 275.339844 236.125 274.699219 235.660156 273.679688 C 234.945312 272.707031 234.945312 271.386719 235.660156 270.417969 L 254.585938 251.324219 C 255.777344 250.207031 257.632812 250.207031 258.824219 251.324219 L 272.703125 265.191406 C 273.269531 266.089844 273.269531 267.230469 272.703125 268.128906 C 272.425781 269.222656 271.53125 270.054688 270.421875 270.25 L 237.789062 275.3125 Z M 257.363281 257.523438 L 246.757812 268.128906 L 265.035156 265.355469 Z M 257.363281 257.523438 "/>
<path style=" stroke:none;fill-rule:nonzero;fill:rgb(100%,100%,100%);fill-opacity:1;" d="M 271.234375 267.148438 L 248.226562 270.085938 C 246.964844 270.375 245.660156 269.796875 245.023438 268.667969 C 244.382812 267.542969 244.558594 266.128906 245.457031 265.191406 L 257.371094 253.277344 Z M 271.234375 267.148438 "/>
<path style=" stroke:none;fill-rule:nonzero;fill:rgb(100%,42.352942%,21.568628%);fill-opacity:1;" d="M 247.574219 273.195312 C 245.402344 273.175781 243.410156 271.988281 242.355469 270.09375 C 241.074219 267.796875 241.472656 264.929688 243.332031 263.074219 L 255.246094 251.160156 C 256.4375 250.039062 258.296875 250.039062 259.488281 251.160156 L 273.359375 265.03125 C 274.203125 265.832031 274.496094 267.050781 274.105469 268.144531 C 273.71875 269.238281 272.722656 270.003906 271.566406 270.09375 L 248.722656 273.03125 Z M 247.574219 267.15625 L 264.871094 265.03125 L 257.203125 257.367188 L 247.414062 267.15625 Z M 389.535156 149.179688 C 388.898438 148.117188 387.5625 147.695312 386.429688 148.203125 C 386.597656 153.710938 386.277344 156.554688 384.636719 158.648438 C 386.714844 161.9375 387.535156 161.6875 388.066406 161.089844 C 390.808594 157.730469 391.378906 153.097656 389.535156 149.175781 Z M 389.535156 149.179688 "/>
</g>
</svg>
