<?xml version="1.0" encoding="UTF-8"?>
<svg xmlns="http://www.w3.org/2000/svg" xmlns:xlink="http://www.w3.org/1999/xlink" width="500px" height="469px" viewBox="0 0 500 469" version="1.1">
<defs>
<linearGradient id="linear0" gradientUnits="userSpaceOnUse" x1="0.5" y1="10.89396" x2="0.5" y2="-1.595" gradientTransform="matrix(303.617188,0,0,26.917969,123.75,195.222656)">
<stop offset="0.3033" style="stop-color:rgb(27.843137%,21.568627%,53.333333%);stop-opacity:1;"/>
<stop offset="0.872" style="stop-color:rgb(17.254902%,13.333333%,33.333333%);stop-opacity:1;"/>
</linearGradient>
<linearGradient id="linear1" gradientUnits="userSpaceOnUse" x1="0.49999" y1="8.96537" x2="0.49999" y2="-3.52359" gradientTransform="matrix(303.613281,0,0,26.917969,123.753906,247.136719)">
<stop offset="0.3033" style="stop-color:rgb(27.843137%,21.568627%,53.333333%);stop-opacity:1;"/>
<stop offset="0.872" style="stop-color:rgb(17.254902%,13.333333%,33.333333%);stop-opacity:1;"/>
</linearGradient>
<linearGradient id="linear2" gradientUnits="userSpaceOnUse" x1="0.49999" y1="2.1517" x2="0.49999" y2="-1.66715" gradientTransform="matrix(276.195312,0,0,88.023437,137.460938,299.050781)">
<stop offset="0.3033" style="stop-color:rgb(27.843137%,21.568627%,53.333333%);stop-opacity:1;"/>
<stop offset="0.8631" style="stop-color:rgb(17.254902%,13.333333%,33.333333%);stop-opacity:1;"/>
</linearGradient>
</defs>
<g id="surface1">
<path style=" stroke:none;fill-rule:nonzero;fill:rgb(17.254902%,13.333334%,33.333334%);fill-opacity:1;" d="M 137.464844 299.050781 L 61.054688 299.050781 C 71.171875 333.769531 89.945312 364.886719 117.429688 392.386719 C 161.246094 436.226562 213.933594 458.121094 275.546875 458.121094 C 287.863281 458.121094 299.796875 457.199219 311.386719 455.453125 C 357.792969 448.441406 398.425781 427.453125 433.242188 392.386719 C 460.902344 364.894531 479.808594 333.769531 490.003906 299.050781 Z M 95.332031 195.230469 L 55.414062 195.230469 C 53.925781 204.136719 52.957031 213.125 52.511719 222.144531 L 498.601562 222.144531 C 498.148438 212.960938 497.148438 204.003906 495.675781 195.230469 M 52.507812 247.140625 C 52.960938 256.328125 53.949219 265.285156 55.414062 274.054688 L 495.6875 274.054688 C 497.183594 265.148438 498.164062 256.160156 498.613281 247.140625 M 490.015625 170.230469 C 479.828125 135.414062 460.917969 104.152344 433.242188 76.457031 C 398.519531 41.722656 358.003906 20.882812 311.746094 13.871094 C 299.765625 12.058594 287.664062 11.152344 275.546875 11.164062 C 213.9375 11.164062 161.246094 32.9375 117.433594 76.460938 C 89.9375 104.152344 71.152344 135.414062 61.042969 170.230469 "/>
<path style=" stroke:none;fill-rule:nonzero;fill:rgb(96.862745%,58.039218%,11.764706%);fill-opacity:1;" d="M 39.242188 234.652344 C 39.242188 116.753906 127.75 18.800781 242.882812 1.570312 C 240.03125 1.464844 237.15625 1.351562 234.273438 1.351562 C 105.070312 1.351562 0.320312 105.808594 0.320312 234.652344 C 0.320312 363.5 105.066406 467.949219 234.273438 467.949219 C 237.167969 467.949219 240.039062 467.839844 242.90625 467.734375 C 127.75 450.503906 39.246094 352.546875 39.246094 234.652344 Z M 39.242188 234.652344 "/>
<path style=" stroke:none;fill-rule:nonzero;fill:url(#linear0);" d="M 427.367188 222.140625 C 426.636719 213.046875 425.089844 204.039062 422.75 195.222656 L 128.371094 195.222656 C 126.023438 204.039062 124.476562 213.046875 123.75 222.140625 Z M 427.367188 222.140625 "/>
<path style=" stroke:none;fill-rule:nonzero;fill:url(#linear1);" d="M 427.367188 247.136719 L 123.753906 247.136719 C 124.480469 256.230469 126.023438 265.242188 128.371094 274.054688 L 422.753906 274.054688 C 425.09375 265.242188 426.636719 256.230469 427.367188 247.136719 Z M 427.367188 247.136719 "/>
<path style=" stroke:none;fill-rule:nonzero;fill:url(#linear2);" d="M 275.558594 387.074219 C 336.691406 387.074219 389.390625 351.039062 413.65625 299.050781 L 137.460938 299.050781 C 161.730469 351.039062 214.425781 387.074219 275.558594 387.074219 Z M 275.558594 387.074219 "/>
<path style=" stroke:none;fill-rule:nonzero;fill:rgb(100%,100%,100%);fill-opacity:1;" d="M 101.25 247.140625 L 498.300781 247.140625 C 498.511719 243.164062 498.628906 239.160156 498.628906 235.128906 C 498.628906 230.769531 498.46875 226.445312 498.222656 222.140625 L 52.507812 222.140625 C 52.261719 226.441406 52.101562 230.769531 52.101562 235.128906 C 52.101562 239.160156 52.21875 243.164062 52.429688 247.140625 Z M 136.570312 170.230469 L 61.039062 170.230469 C 58.554688 178.367188 56.953125 186.71875 55.414062 195.230469 L 494.265625 195.230469 C 492.75 186.785156 490.746094 178.4375 488.261719 170.230469 M 465.570312 274.050781 L 55.414062 274.050781 C 56.90625 282.554688 58.613281 290.902344 61.054688 299.050781 L 489.722656 299.050781 C 492.171875 290.839844 494.144531 282.492188 495.625 274.050781 Z M 465.570312 274.050781 "/>
</g>
</svg>
